<svg xmlns="http://www.w3.org/2000/svg" xmlns:xlink="http://www.w3.org/1999/xlink" width="300" height="200" viewBox="0 0 300 200"><defs><clipPath id="geopolis-pennant"><polygon points="0,0 300,0 250,100.0 300,200 0,200"/></clipPath></defs><g clip-path="url(#geopolis-pennant)"><rect y="0" width="300" height="40" fill="#0033a0"/><rect y="40" width="300" height="40" fill="#ffffff"/><rect y="80" width="300" height="40" fill="#c8102e"/><rect y="120" width="300" height="40" fill="#ffffff"/><rect y="160" width="300" height="40" fill="#0033a0"/></g><svg viewBox="0.0 0.0 36.1 19.0" xmlns="http://www.w3.org/2000/svg" preserveAspectRatio="xMidYMid meet" xmlns:xlink="http://www.w3.org/1999/xlink" x="0.000" y="0.000" width="152.000" height="80.000"><defs><g id="b"><use xlink:href="#a" x=".902" y=".85"/><use xlink:href="#a" x="2.708" y=".85"/><use xlink:href="#a" x="4.513" y=".85"/><use xlink:href="#a" x="6.317" y=".85"/><use xlink:href="#a" x="8.123" y=".85"/><use xlink:href="#a" x="9.928" y=".85"/><use xlink:href="#a" x="11.732" y=".85"/><use xlink:href="#a" x="13.537" y=".85"/></g><g id="c"><use xlink:href="#b"/><use xlink:href="#b" y="1.705"/><use xlink:href="#b" y="3.41"/><use xlink:href="#b" y="5.115"/><use xlink:href="#b" y="6.82"/><use xlink:href="#b" y="8.525"/></g><path id="a" transform="scale(.58515)" fill="#fff" d="M0-1 .588.809-.952-.309H.952L-.588.809z"/></defs><path fill="#bf0a30" d="M0 0h36.1v19H0z"/><path stroke="#FFF" stroke-width="1.462" d="M0 2.192h36.1M0 5.115h36.1M0 8.038h36.1M0 10.961h36.1M0 13.884h36.1M0 16.807h36.1"/><path fill="#00205B" d="M0 0h14.44v10.23H0z"/><use xlink:href="#c"/></svg></svg>
