<svg xmlns="http://www.w3.org/2000/svg" xmlns:xlink="http://www.w3.org/1999/xlink" width="300" height="200" viewBox="0 0 300 200"><defs><clipPath id="geopolis-pennant"><polygon points="0,0 300,0 250,100.0 300,200 0,200"/></clipPath></defs><g clip-path="url(#geopolis-pennant)"><rect y="0" width="300" height="40" fill="#0033a0"/><rect y="40" width="300" height="40" fill="#ffffff"/><rect y="80" width="300" height="40" fill="#c8102e"/><rect y="120" width="300" height="40" fill="#ffffff"/><rect y="160" width="300" height="40" fill="#0033a0"/></g><svg viewBox="0.0 0.0 50.0 30.0" xmlns="http://www.w3.org/2000/svg" preserveAspectRatio="xMidYMid meet" xmlns:xlink="http://www.w3.org/1999/xlink" x="0.000" y="0.000" width="133.333" height="80.000">
	<clipPath id="t">
		<path d="M25,15h25v15zv15h-25zh-25v-15zv-15h25z"/>
	</clipPath>
	<path d="M0,0v30h50v-30z" fill="#012169"/>
	<path d="M0,0 50,30M50,0 0,30" stroke="#fff" stroke-width="6"/>
	<path d="M0,0 50,30M50,0 0,30" clip-path="url(#t)" stroke="#C8102E" stroke-width="4"/>
	<path d="M-1 11h22v-12h8v12h22v8h-22v12h-8v-12h-22z" fill="#C8102E" stroke="#FFF" stroke-width="2"/>
</svg></svg>
